<?xml version="1.0" encoding="UTF-8"?>
<!DOCTYPE svg PUBLIC "-//W3C//DTD SVG 1.1//EN" "http://www.w3.org/Graphics/SVG/1.1/DTD/svg11.dtd">
<!-- Creator: CorelDRAW 2018 (64-Bit) -->
<svg xmlns="http://www.w3.org/2000/svg" xml:space="preserve" width="4.07498in" height="0.987496in" version="1.1" style="shape-rendering:geometricPrecision; text-rendering:geometricPrecision; image-rendering:optimizeQuality; fill-rule:evenodd; clip-rule:evenodd"
viewBox="0 0 2507.58 607.67"
 xmlns:xlink="http://www.w3.org/1999/xlink">
 <defs>
  <style type="text/css">
   <![CDATA[
    .fil0 {fill:#F6F9F9;fill-rule:nonzero}
   ]]>
  </style>
 </defs>
 <g id="Layer_x0020_1">
  <metadata id="CorelCorpID_0Corel-Layer"/>
  <path class="fil0" d="M569.21 71.15c11.97,1.71 20.19,5.34 24.68,10.9 4.49,5.56 6.73,12.82 6.73,21.79 0,29.49 -15.81,43.16 -47.43,41.03l-22.44 -1.92c-25.21,-2.14 -50.32,-3.85 -75.32,-5.13 -25,-1.28 -51.17,-1.92 -78.52,-1.92l-28.84 0c-5.13,63.24 -10.47,120.94 -16.03,173.07l110.25 -1.92c15.81,0 26.39,2.78 31.73,8.33 5.34,5.56 8.01,13.03 8.01,22.43 0,14.53 -4.27,25.96 -12.82,34.29 -8.55,8.33 -20.73,12.5 -36.54,12.5l-109.61 0 -3.84 27.56c-8.97,70.51 -28.1,120.72 -57.37,150.64 -29.27,29.91 -69.55,44.87 -120.83,44.87 -29.06,0 -55.77,-6.3 -80.13,-18.91 -24.36,-12.61 -42.31,-27.88 -53.84,-45.83 -4.7,-7.27 -7.05,-16.03 -7.05,-26.28 0,-10.26 2.46,-19.23 7.37,-26.92 4.92,-7.69 11,-11.54 18.27,-11.54 5.13,0 10.15,1.71 15.06,5.13 4.92,3.42 11.22,10.04 18.91,19.87 20.51,26.92 45.94,40.38 76.28,40.38 24.36,0 44.76,-9.94 61.22,-29.81 16.45,-19.87 27.03,-51.17 31.73,-93.91l3.84 -35.25 -30.77 0c-9.83,0 -18.27,-2.78 -25.32,-8.33 -7.05,-5.56 -10.58,-13.46 -10.58,-23.72 0,-13.25 3.42,-23.4 10.26,-30.45 6.84,-7.05 16.88,-10.58 30.13,-10.58 11.97,0 23.72,-0.21 35.25,-0.64 5.13,-47.01 10.68,-104.06 16.67,-171.15 -46.15,4.27 -78.63,11.75 -97.43,22.43 -18.8,10.68 -28.2,26.5 -28.2,47.44 0,14.53 4.27,28.42 12.82,41.67 2.56,3.84 3.84,7.69 3.84,11.54 0,7.69 -4.27,14.42 -12.82,20.19 -8.55,5.77 -18.16,8.65 -28.85,8.65 -11.54,0 -21.37,-3.42 -29.48,-10.26 -5.13,-4.27 -10.04,-13.03 -14.74,-26.28 -4.7,-13.25 -7.05,-27.99 -7.05,-44.23 0,-52.99 27.24,-91.45 81.73,-115.38 54.49,-23.93 134.08,-35.9 238.77,-35.9 72.65,0 136.75,3.85 192.3,11.54zm239.09 334.6c5.56,0 9.83,2.78 12.82,8.33 2.99,5.56 4.49,12.61 4.49,21.15 0,20.51 -6.2,32.69 -18.59,36.54 -25.64,8.97 -53.84,14.1 -84.61,15.38 -8.12,35.9 -24.14,64.63 -48.08,86.21 -23.93,21.58 -51.07,32.37 -81.41,32.37 -25.64,0 -47.54,-6.2 -65.7,-18.59 -18.16,-12.39 -31.94,-28.84 -41.35,-49.36 -9.4,-20.51 -14.1,-42.73 -14.1,-66.66 0,-32.48 6.2,-61.43 18.59,-86.86 12.39,-25.42 29.49,-45.29 51.28,-59.61 21.79,-14.32 45.94,-21.47 72.43,-21.47 32.48,0 58.65,11.22 78.52,33.65 19.87,22.44 31.52,50.1 34.94,83.01 20.08,-1.28 44.01,-5.56 71.79,-12.82 3.42,-0.86 6.41,-1.28 8.97,-1.28zm-210.25 132.05c13.68,0 25.53,-5.56 35.57,-16.67 10.04,-11.11 16.77,-27.14 20.19,-48.08 -13.25,-8.97 -23.4,-20.73 -30.45,-35.25 -7.05,-14.53 -10.58,-29.91 -10.58,-46.15 0,-6.84 0.64,-13.67 1.92,-20.51l-3.21 0c-17.09,0 -31.3,8.22 -42.62,24.68 -11.33,16.45 -16.99,39.64 -16.99,69.55 0,23.5 4.59,41.45 13.78,53.84 9.19,12.39 19.98,18.59 32.37,18.59zm499.34 -132.05c5.56,0 9.83,2.78 12.82,8.33 2.99,5.56 4.49,12.61 4.49,21.15 0,20.51 -6.2,32.69 -18.59,36.54 -25.64,8.97 -53.84,14.1 -84.61,15.38 -8.12,35.9 -24.14,64.63 -48.08,86.21 -23.93,21.58 -51.07,32.37 -81.41,32.37 -25.64,0 -47.54,-6.2 -65.7,-18.59 -18.16,-12.39 -31.94,-28.84 -41.35,-49.36 -9.4,-20.51 -14.1,-42.73 -14.1,-66.66 0,-32.48 6.2,-61.43 18.59,-86.86 12.39,-25.42 29.49,-45.29 51.28,-59.61 21.79,-14.32 45.94,-21.47 72.43,-21.47 32.48,0 58.65,11.22 78.52,33.65 19.87,22.44 31.52,50.1 34.94,83.01 20.08,-1.28 44.02,-5.56 71.79,-12.82 3.42,-0.86 6.41,-1.28 8.97,-1.28zm-210.25 132.05c13.68,0 25.53,-5.56 35.57,-16.67 10.04,-11.11 16.77,-27.14 20.19,-48.08 -13.25,-8.97 -23.4,-20.73 -30.45,-35.25 -7.05,-14.53 -10.58,-29.91 -10.58,-46.15 0,-6.84 0.64,-13.67 1.92,-20.51l-3.21 0c-17.09,0 -31.3,8.22 -42.62,24.68 -11.33,16.45 -16.99,39.64 -16.99,69.55 0,23.5 4.59,41.45 13.78,53.84 9.19,12.39 19.98,18.59 32.37,18.59zm536.52 -78.2c5.56,0 9.94,2.56 13.14,7.69 3.21,5.13 4.81,12.18 4.81,21.15 0,17.09 -4.06,30.34 -12.18,39.74 -17.52,21.37 -36.75,39.64 -57.69,54.81 -20.94,15.17 -41.67,22.76 -62.18,22.76 -32.48,0 -57.26,-19.02 -74.35,-57.05 -17.95,22.65 -33.65,37.82 -47.11,45.51 -13.46,7.69 -29.17,11.54 -47.11,11.54 -26.07,0 -47.54,-9.72 -64.42,-29.17 -16.88,-19.44 -25.32,-44.76 -25.32,-75.96 0,-34.19 7.27,-65.92 21.79,-95.19 14.53,-29.27 34.51,-53.2 59.93,-71.79 25.43,-18.59 53.95,-29.59 85.57,-33.01 8.12,-82.9 23.61,-153.73 46.47,-212.49 22.86,-58.76 52.88,-88.14 90.06,-88.14 18.37,0 33.65,8.33 45.83,25 12.18,16.67 18.27,41.88 18.27,75.64 0,47.86 -11.75,103.84 -35.25,167.94 -23.5,64.1 -54.91,129.91 -94.23,197.43 1.71,24.78 5.45,42.52 11.22,53.2 5.77,10.68 13.14,16.03 22.12,16.03 11.54,0 23.29,-5.13 35.25,-15.38 11.97,-10.26 27.99,-27.35 48.07,-51.28 5.13,-5.98 10.9,-8.97 17.31,-8.97zm-75.64 -396.78c-8.12,0 -16.24,14.42 -24.36,43.27 -8.12,28.85 -15.06,66.56 -20.83,113.14 -5.77,46.58 -9.94,95.3 -12.5,146.15 47.86,-104.27 71.79,-188.03 71.79,-251.27 0,-16.24 -1.39,-28.84 -4.17,-37.82 -2.78,-8.97 -6.09,-13.46 -9.94,-13.46zm-184.61 478.18c8.12,0 16.24,-3.31 24.36,-9.94 8.12,-6.62 18.37,-18.91 30.77,-36.86 -4.27,-23.08 -6.41,-48.93 -6.41,-77.56 0,-10.26 0.43,-26.92 1.28,-50 -23.5,7.27 -43.05,22.97 -58.65,47.11 -15.6,24.14 -23.4,50.96 -23.4,80.45 0,31.2 10.68,46.79 32.05,46.79zm271.78 64.74c-16.24,0 -27.67,-8.55 -34.29,-25.64 -6.62,-17.09 -9.94,-44.44 -9.94,-82.05 0,-55.55 7.91,-108.33 23.72,-158.32 3.84,-12.39 10.15,-21.47 18.91,-27.24 8.76,-5.77 21.05,-8.65 36.86,-8.65 8.55,0 14.53,1.07 17.95,3.21 3.42,2.14 5.13,6.2 5.13,12.18 0,6.84 -3.2,22.22 -9.61,46.15 -4.27,17.09 -7.69,32.05 -10.26,44.87 -2.56,12.82 -4.7,28.63 -6.41,47.43 14.1,-36.75 29.91,-66.66 47.43,-89.74 17.52,-23.08 34.72,-39.53 51.6,-49.36 16.88,-9.83 32.37,-14.74 46.47,-14.74 27.78,0 41.67,13.89 41.67,41.67 0,16.67 -4.7,46.79 -14.1,90.38 -8.12,37.18 -12.18,61.75 -12.18,73.71 0,17.09 6.19,25.64 18.59,25.64 8.55,0 18.7,-5.24 30.45,-15.7 11.75,-10.47 27.45,-27.46 47.11,-50.96 5.13,-5.98 10.9,-8.97 17.31,-8.97 5.56,0 9.94,2.56 13.14,7.69 3.21,5.13 4.81,12.18 4.81,21.15 0,17.09 -4.06,30.34 -12.18,39.74 -18.37,22.65 -38.14,41.24 -59.29,55.77 -21.15,14.53 -45.19,21.79 -72.11,21.79 -21.79,0 -38.25,-6.3 -49.36,-18.91 -11.11,-12.61 -16.67,-30.87 -16.67,-54.81 0,-11.97 2.99,-33.33 8.97,-64.1 5.56,-26.92 8.33,-45.51 8.33,-55.77 0,-6.84 -2.35,-10.26 -7.05,-10.26 -5.56,0 -13.35,7.16 -23.4,21.47 -10.04,14.32 -20.3,33.22 -30.77,56.73 -10.47,23.5 -18.91,48.29 -25.32,74.35 -4.7,20.09 -10.15,33.65 -16.35,40.7 -6.2,7.05 -15.92,10.58 -29.17,10.58zm599.33 -199.99c5.56,0 9.83,2.78 12.82,8.33 2.99,5.56 4.49,12.61 4.49,21.15 0,20.51 -6.2,32.69 -18.59,36.54 -25.64,8.97 -53.84,14.1 -84.61,15.38 -8.12,35.9 -24.14,64.63 -48.08,86.21 -23.93,21.58 -51.07,32.37 -81.41,32.37 -25.64,0 -47.54,-6.2 -65.7,-18.59 -18.16,-12.39 -31.94,-28.84 -41.35,-49.36 -9.4,-20.51 -14.1,-42.73 -14.1,-66.66 0,-32.48 6.2,-61.43 18.59,-86.86 12.39,-25.42 29.49,-45.29 51.28,-59.61 21.79,-14.32 45.94,-21.47 72.43,-21.47 32.48,0 58.65,11.22 78.52,33.65 19.87,22.44 31.52,50.1 34.94,83.01 20.08,-1.28 44.02,-5.56 71.79,-12.82 3.42,-0.86 6.41,-1.28 8.97,-1.28zm-210.25 132.05c13.68,0 25.53,-5.56 35.57,-16.67 10.04,-11.11 16.77,-27.14 20.19,-48.08 -13.25,-8.97 -23.4,-20.73 -30.45,-35.25 -7.05,-14.53 -10.58,-29.91 -10.58,-46.15 0,-6.84 0.64,-13.67 1.92,-20.51l-3.21 0c-17.09,0 -31.3,8.22 -42.62,24.68 -11.33,16.45 -16.99,39.64 -16.99,69.55 0,23.5 4.59,41.45 13.78,53.84 9.19,12.39 19.98,18.59 32.37,18.59zm657.02 -130.12c1.28,-0.43 3.42,-0.64 6.41,-0.64 6.41,0 11.32,2.14 14.74,6.41 3.42,4.27 5.13,10.04 5.13,17.31 0,13.25 -2.57,23.61 -7.69,31.09 -5.13,7.48 -12.82,12.93 -23.08,16.35 -19.66,6.41 -40.6,9.62 -62.82,9.62 -18.8,0 -36.54,-2.57 -53.2,-7.69 -12.39,20.08 -26.07,40.81 -41.02,62.18 -17.09,24.36 -31.73,41.03 -43.91,50 -12.18,8.97 -25.96,13.46 -41.35,13.46 -17.09,0 -30.02,-6.62 -38.78,-19.87 -8.76,-13.25 -14.21,-35.04 -16.35,-65.38l-3.21 -46.79c-13.25,35.89 -25.1,63.24 -35.57,82.05 -10.47,18.8 -20.94,31.84 -31.41,39.1 -10.47,7.27 -22.75,10.9 -36.86,10.9 -17.52,0 -31.3,-6.84 -41.35,-20.51 -10.04,-13.67 -16.35,-35.25 -18.91,-64.74 -5.13,-59.83 -7.69,-112.18 -7.69,-157.04l0 -22.44c0.43,-14.1 4.27,-23.93 11.54,-29.49 7.26,-5.56 18.16,-8.33 32.69,-8.33 11.11,0 19.34,2.46 24.68,7.37 5.34,4.92 8.01,13.14 8.01,24.68 0,49.14 2.99,113.03 8.97,191.66 29.06,-61.11 55.77,-124.78 80.12,-191.02 4.7,-12.82 10.36,-21.47 16.99,-25.96 6.62,-4.49 14.64,-6.73 24.04,-6.73 11.54,0 19.55,2.35 24.04,7.05 4.49,4.7 6.73,13.03 6.73,25 0,49.14 2.99,113.03 8.98,191.66 25.64,-38.03 44.87,-68.37 57.69,-91.02 -6.41,-12.39 -9.62,-27.13 -9.62,-44.23 0,-14.53 3.21,-28.63 9.62,-42.3 6.41,-13.68 15.17,-24.79 26.28,-33.33 11.11,-8.54 23.72,-12.82 37.82,-12.82 12.39,0 22.44,4.38 30.13,13.14 7.69,8.76 11.54,21.47 11.54,38.14 0,19.23 -5.13,41.24 -15.38,66.02 16.24,-0.85 37.82,-4.06 64.74,-9.61l17.31 -3.21z"/>
 </g>
</svg>
